<svg xmlns="http://www.w3.org/2000/svg" xmlns:xlink="http://www.w3.org/1999/xlink" width="22" height="20" viewBox="0 0 22 20">
    <defs>
        <path id="a" d="M355.888 18.08a.334.334 0 0 0-.355-.05l-21.343 9.74a.323.323 0 0 0-.19.29.322.322 0 0 0 .184.293l6.04 2.912c.11.053.243.041.342-.032l5.872-4.31-4.61 4.657a.32.32 0 0 0-.092.25l.459 5.872a.324.324 0 0 0 .328.298c.094 0 .185-.04.249-.112l3.205-3.649 3.963 1.86c.086.04.186.042.273.005a.325.325 0 0 0 .183-.2l5.589-17.484a.32.32 0 0 0-.097-.34z"/>
    </defs>
    <use fill="#FFF" fill-rule="nonzero" transform="translate(-334 -18)" xlink:href="#a"/>
</svg>
