<svg xmlns="http://www.w3.org/2000/svg" width="24" height="24" viewBox="0 0 24 24">
    <defs>
        <linearGradient id="a" x1="73.798%" x2="50%" y1="100%" y2="-17.056%">
            <stop offset="0%" stop-color="#008AEC"/>
            <stop offset="100%" stop-color="#0056F1"/>
        </linearGradient>
    </defs>
    <path fill="url(#a)" fill-rule="evenodd" d="M29.211 21.528a7.807 7.807 0 0 1-.87 2.095.769.769 0 0 0 .182.996c.055.045.115.082.194.127.242.259.376.595.376.952 0 .373-.145.723-.409.986-.513.514-1.397.535-1.938.033a1.395 1.395 0 0 0-.119-.186.766.766 0 0 0-1.004-.192c-.653.39-1.359.685-2.097.873-.38.097-.616.525-.562.913.005.035.012.07.012.107 0 .77-.626 1.395-1.394 1.395a1.397 1.397 0 0 1-1.395-1.395c0-.037.007-.072.022-.177a.767.767 0 0 0-.572-.843 7.882 7.882 0 0 1-2.097-.873.767.767 0 0 0-.993.18 1.557 1.557 0 0 0-.13.198c-.53.496-1.422.482-1.938-.033a1.387 1.387 0 0 1-.408-.986c0-.355.131-.69.377-.953.065-.037.13-.076.19-.123a.768.768 0 0 0 .185-1 7.807 7.807 0 0 1-.87-2.094c-.097-.38-.528-.622-.913-.564-.036.005-.071.013-.109.013-.77 0-1.395-.626-1.395-1.395s.626-1.395 1.395-1.395c.04 0 .078.008.178.021a.771.771 0 0 0 .843-.572 7.78 7.78 0 0 1 .872-2.094.768.768 0 0 0-.19-1.005 1.55 1.55 0 0 0-.187-.12 1.384 1.384 0 0 1-.376-.952c0-.373.145-.722.409-.986a1.414 1.414 0 0 1 1.938-.03c.039.068.08.134.13.196.24.3.664.377.992.18a7.96 7.96 0 0 1 2.099-.874c.38-.098.616-.524.56-.912-.005-.035-.012-.07-.012-.108 0-.77.626-1.395 1.395-1.395.768 0 1.394.626 1.394 1.395 0 .038-.007.073-.021.176a.768.768 0 0 0 .57.844 7.96 7.96 0 0 1 2.1.873c.33.199.76.12.998-.187.042-.054.08-.112.123-.19.53-.498 1.42-.488 1.939.034.263.262.408.612.408.984 0 .354-.13.687-.378.953a1.537 1.537 0 0 0-.188.122.769.769 0 0 0-.188 1.002 7.78 7.78 0 0 1 .872 2.094c.096.38.514.618.902.565.04-.006.079-.014.119-.014.768 0 1.394.626 1.394 1.395 0 .77-.626 1.395-1.394 1.395-.038 0-.074-.008-.177-.021a.767.767 0 0 0-.844.572zm1.318-4.861a9.208 9.208 0 0 0-.56-1.35 2.9 2.9 0 0 0 .66-1.852 2.9 2.9 0 0 0-.857-2.07 2.909 2.909 0 0 0-2.073-.862c-.686 0-1.335.235-1.853.66a9.457 9.457 0 0 0-1.348-.557A2.935 2.935 0 0 0 21.582 8a2.935 2.935 0 0 0-2.916 2.636c-.465.152-.916.339-1.35.559-1.119-.918-2.889-.839-3.923.198a2.909 2.909 0 0 0-.858 2.072c0 .686.234 1.336.659 1.853a9.271 9.271 0 0 0-.56 1.349A2.934 2.934 0 0 0 10 19.582a2.935 2.935 0 0 0 2.636 2.916c.15.463.337.915.558 1.349a2.907 2.907 0 0 0-.66 1.851c0 .784.306 1.52.859 2.072.553.553 1.289.858 2.072.858.686 0 1.336-.234 1.853-.659.434.221.885.409 1.348.559a2.935 2.935 0 0 0 2.916 2.635 2.935 2.935 0 0 0 2.916-2.635c.463-.15.914-.338 1.348-.559 1.12.916 2.89.836 3.923-.198.555-.553.86-1.289.86-2.073 0-.685-.234-1.334-.658-1.851.22-.434.407-.886.557-1.35a2.934 2.934 0 0 0 2.634-2.915 2.934 2.934 0 0 0-2.633-2.915zm-10.882 2.915c0-1.068.868-1.936 1.935-1.936 1.067 0 1.936.868 1.936 1.936a1.938 1.938 0 0 1-1.936 1.935 1.937 1.937 0 0 1-1.935-1.935zm-1.536 0a3.475 3.475 0 0 0 3.47 3.47 3.475 3.475 0 0 0 3.473-3.47 3.476 3.476 0 0 0-3.472-3.472 3.475 3.475 0 0 0-3.471 3.472z" transform="translate(-10 -8)"/>
</svg>
